<?xml version="1.0" standalone="no"?>
<!DOCTYPE svg PUBLIC "-//W3C//DTD SVG 20010904//EN"
 "http://www.w3.org/TR/2001/REC-SVG-20010904/DTD/svg10.dtd">
<svg version="1.0" xmlns="http://www.w3.org/2000/svg"
 width="512.000000pt" height="512.000000pt" viewBox="0 0 512.000000 512.000000"
 preserveAspectRatio="xMidYMid meet">

<g transform="translate(0.000000,512.000000) scale(0.100000,-0.100000)"
fill="#000000" stroke="none">
<path d="M1430 5111 c-125 -38 -198 -155 -170 -272 18 -72 64 -119 179 -181
359 -193 682 -463 1083 -907 114 -126 138 -158 133 -175 -17 -50 -17 -172 -1
-211 l17 -39 -485 -486 c-319 -319 -487 -494 -491 -512 -16 -62 35 -123 102
-121 34 1 64 29 520 485 l483 483 188 -188 187 -187 -1295 -1294 c-887 -888
-1304 -1297 -1322 -1302 -54 -12 -81 5 -215 139 -134 134 -151 161 -138 214 4
19 179 201 526 548 l519 520 0 43 c0 71 -66 118 -128 93 -16 -7 -265 -249
-554 -539 -585 -587 -563 -560 -563 -697 0 -111 26 -153 207 -331 172 -170
205 -189 318 -189 137 0 24 -103 1480 1352 l1316 1314 39 -17 c39 -16 161 -16
211 1 25 8 135 -87 388 -334 338 -332 530 -576 694 -882 29 -54 69 -112 91
-132 114 -102 294 -51 352 101 18 50 21 70 16 162 -24 465 -362 1252 -737
1714 -72 88 -72 89 -61 126 16 52 14 140 -4 190 l-15 43 90 92 c118 121 144
175 138 284 -7 110 -28 143 -197 312 -169 169 -202 190 -312 197 -109 6 -163
-20 -284 -138 l-92 -90 -43 15 c-50 18 -138 20 -190 4 -37 -11 -39 -11 -117
53 -367 299 -913 569 -1398 692 -186 48 -394 68 -465 47z m355 -226 c463 -106
1091 -411 1380 -669 l50 -45 -210 -211 -210 -211 -35 39 c-522 570 -817 825
-1190 1027 -128 69 -131 72 -105 92 28 21 177 11 320 -22z m2402 -698 c139
-139 143 -144 143 -185 0 -39 -6 -48 -76 -122 -42 -44 -82 -80 -88 -80 -14 0
-366 351 -366 366 0 6 36 46 80 88 74 70 83 76 122 76 41 0 46 -4 185 -143z
m-350 -350 l293 -292 0 -45 0 -45 -308 -307 -307 -308 -45 0 -45 0 -292 292
-293 293 0 45 0 45 308 307 307 308 45 0 45 0 292 -293z m399 -694 c66 -80
199 -280 273 -410 118 -209 259 -536 325 -754 71 -234 105 -472 73 -514 -10
-13 -19 -17 -25 -10 -5 6 -42 69 -82 140 -128 231 -269 419 -501 672 -112 121
-375 375 -512 493 l-38 33 208 209 c114 114 211 208 215 208 4 0 33 -30 64
-67z"/>
<path d="M1439 2076 c-48 -15 -75 -72 -59 -121 15 -44 44 -65 93 -65 83 0 126
94 72 158 -29 35 -60 43 -106 28z"/>
</g>
</svg>
